<?xml version="1.0" encoding="UTF-8" standalone="no"?>
<!DOCTYPE svg PUBLIC "-//W3C//DTD SVG 1.1//EN" "http://www.w3.org/Graphics/SVG/1.1/DTD/svg11.dtd">
<svg version="1.1" xmlns="http://www.w3.org/2000/svg" xmlns:xlink="http://www.w3.org/1999/xlink" preserveAspectRatio="xMidYMid meet" viewBox="0 0 640 640" width="640" height="640"><defs><path d="M281.09 40L320 37.83L331.09 61.74L310.43 116.09L348.48 111.74L391.96 151.96L382.17 183.48L343.04 187.83L331.09 253.04L382.17 257.39L408.26 246.52L450.65 267.17L391.96 281.3L348.48 379.13L446.3 360.65L465.87 399.78L446.3 425.87L411.52 418.26L402.83 447.61L335.43 506.3L343.04 545.43L385.43 526.96L411.52 574.78L335.43 626.96L294.13 613.91L274.57 595.43L251.74 591.09L225.65 595.43L110.43 595.43L78.91 566.09L78.91 545.43L94.13 516.09L90.87 506.3L78.91 494.75L71.3 485.75L71.3 474.78L78.91 466.09L82.37 459.07L68.04 447.61L63.7 435.65L68.04 425.87L78.91 411.74L78.91 399.78L74.57 387.83L55 370.43L45.22 357.39L43.43 347.04L48.48 336.74L90.87 304.13L126.74 257.39L126.74 207.39L161.52 136.74L202.83 87.83L214.78 57.39L274.57 13.91L281.09 40Z" id="a15QxONKjw"></path><path d="M369.13 25.87L378.91 42.17L369.13 57.39L346.3 37.83L349.57 19.35L369.13 25.87Z" id="fhTg2VYy6"></path><path d="M473.02 117.25L476.97 155.74L459.2 181.4L428.61 181.4L425.65 143.89L441.44 117.25L473.02 117.25Z" id="b5dvw8ulmA"></path><path d="M520.39 69.87L535.2 75.79L535.2 91.59L510.52 117.25L499.67 107.38L510.52 75.79L520.39 69.87Z" id="auRCSE54B"></path><path d="M503.61 203.11L513.48 209.03L506.57 221.86L491.77 221.86L491.77 211.99L503.61 203.11Z" id="b1m5WcGRxc"></path><path d="M570.73 212.48L591.45 226.8L591.45 251.47L564.8 251.47L544.08 236.66L544.08 218.9L570.73 212.48Z" id="b37eVgarLR"></path><path d="M517.43 287.99L544.08 320.43L507.56 324.5L502.63 362.99L485.85 328.8L473.02 287.99L517.43 287.99Z" id="d1N01Rzgzp"></path><path d="M567.76 355.1L581.58 351.15L591.45 362.99L591.45 370.89L581.58 375.82L562.83 362.99L567.76 355.1Z" id="a1ADlTjc4J"></path><path d="M499.67 432.08L517.43 436.03L531.25 436.03L535.2 447.87L521.38 458.72L502.63 442.93L499.67 432.08Z" id="b3LDgWxDdJ"></path><path d="M448.35 472.54L463.15 498.2L502.63 485.37L476.97 516.95L448.35 516.95L422.69 495.24L448.35 472.54Z" id="cxssbM2ns"></path></defs><g><g><g><use xlink:href="#a15QxONKjw" opacity="1" fill="#ffffff" fill-opacity="1"></use><g><use xlink:href="#a15QxONKjw" opacity="1" fill-opacity="0" stroke="#ffffff" stroke-width="1" stroke-opacity="1"></use></g></g><g><use xlink:href="#fhTg2VYy6" opacity="1" fill="#ffffff" fill-opacity="1"></use><g><use xlink:href="#fhTg2VYy6" opacity="1" fill-opacity="0" stroke="#ffffff" stroke-width="1" stroke-opacity="1"></use></g></g><g><use xlink:href="#b5dvw8ulmA" opacity="1" fill="#ffffff" fill-opacity="1"></use><g><use xlink:href="#b5dvw8ulmA" opacity="1" fill-opacity="0" stroke="#ffffff" stroke-width="1" stroke-opacity="1"></use></g></g><g><use xlink:href="#auRCSE54B" opacity="1" fill="#ffffff" fill-opacity="1"></use><g><use xlink:href="#auRCSE54B" opacity="1" fill-opacity="0" stroke="#ffffff" stroke-width="1" stroke-opacity="1"></use></g></g><g><use xlink:href="#b1m5WcGRxc" opacity="1" fill="#ffffff" fill-opacity="1"></use><g><use xlink:href="#b1m5WcGRxc" opacity="1" fill-opacity="0" stroke="#ffffff" stroke-width="1" stroke-opacity="1"></use></g></g><g><use xlink:href="#b37eVgarLR" opacity="1" fill="#ffffff" fill-opacity="1"></use><g><use xlink:href="#b37eVgarLR" opacity="1" fill-opacity="0" stroke="#ffffff" stroke-width="1" stroke-opacity="1"></use></g></g><g><use xlink:href="#d1N01Rzgzp" opacity="1" fill="#ffffff" fill-opacity="1"></use><g><use xlink:href="#d1N01Rzgzp" opacity="1" fill-opacity="0" stroke="#ffffff" stroke-width="1" stroke-opacity="1"></use></g></g><g><use xlink:href="#a1ADlTjc4J" opacity="1" fill="#ffffff" fill-opacity="1"></use><g><use xlink:href="#a1ADlTjc4J" opacity="1" fill-opacity="0" stroke="#ffffff" stroke-width="1" stroke-opacity="1"></use></g></g><g><use xlink:href="#b3LDgWxDdJ" opacity="1" fill="#ffffff" fill-opacity="1"></use><g><use xlink:href="#b3LDgWxDdJ" opacity="1" fill-opacity="0" stroke="#ffffff" stroke-width="1" stroke-opacity="1"></use></g></g><g><use xlink:href="#cxssbM2ns" opacity="1" fill="#ffffff" fill-opacity="1"></use><g><use xlink:href="#cxssbM2ns" opacity="1" fill-opacity="0" stroke="#ffffff" stroke-width="1" stroke-opacity="1"></use></g></g></g></g></svg>